<svg xmlns="http://www.w3.org/2000/svg" version="1.1" viewBox="246.51 411 2589.22 439.37">
<path d="M0 0 C7.39134751 6.69113396 14.06911334 13.59890033 20.09375 21.5703125 C20.84011719 22.52421875 21.58648438 23.478125 22.35546875 24.4609375 C38.99478697 46.04402599 50.0719729 70.3781679 55.16015625 97.16015625 C56.50829365 100.64049421 58.15185742 102.27220278 61.09375 104.5703125 C63.89596813 105.55400362 66.72773708 105.98999918 69.65625 106.4453125 C104.59806259 112.95341929 137.34651501 132.45053338 157.87182617 161.80200195 C179.47715319 193.64942849 186.84907506 230.9355879 180.06494141 268.8371582 C175.46003551 291.60543776 165.90610518 314.52211325 151.09375 332.5703125 C150.27519531 333.60027344 149.45664062 334.63023437 148.61328125 335.69140625 C125.81712764 363.90227353 90.7962611 384.30975773 54.640625 389.17578125 C23.92200218 392.33305082 -3.68593507 385.57749906 -30.90625 371.5703125 C-30.90625 369.9203125 -30.90625 368.2703125 -30.90625 366.5703125 C-10.69005593 360.40380861 9.63040644 354.67197129 30.09375 349.3828125 C30.76133331 349.21010834 31.42891663 349.03740417 32.11672974 348.85946655 C38.8352276 347.12524783 45.55549556 345.43123576 52.3347168 343.94897461 C80.73603757 337.71234967 107.69934566 323.06611714 123.890625 298.22265625 C138.50317072 274.6809399 142.84391436 247.7805337 137.00244141 220.67944336 C130.76708372 194.7547245 114.91116917 172.84670866 92.28125 158.7578125 C84.79514043 154.25280779 77.52520991 150.96712077 69.09375 148.5703125 C67.84335937 148.19261719 66.59296875 147.81492187 65.3046875 147.42578125 C57.33315211 145.14240254 49.67795844 144.07705188 41.38378906 143.89746094 C34.6663825 143.7283729 27.43394134 142.99504246 22.09375 138.5703125 C19.1142937 132.8247625 18.26345647 127.24025012 17.34375 120.8828125 C13.57371545 97.47539361 3.91032763 74.84794332 -9.90625 55.5703125 C-10.51243164 54.72291504 -10.51243164 54.72291504 -11.13085938 53.85839844 C-33.3409312 23.29802829 -65.30257682 2.4378908 -102.65625 -4.4296875 C-138.90803159 -10.13434678 -179.77560794 -3.13555526 -210.29296875 17.83203125 C-234.12588954 35.31764407 -250.14106169 57.90322119 -262.03125 84.6328125 C-262.63549805 85.95345703 -262.63549805 85.95345703 -263.25195312 87.30078125 C-265.931072 93.52509295 -266.4674798 97.62775164 -263.90234375 104.10546875 C-260.83882793 107.8884012 -256.98744216 110.30903154 -252.96875 113.0078125 C-251.15095368 114.25508011 -249.33324788 115.50247965 -247.515625 116.75 C-246.58427734 117.38389648 -245.65292969 118.01779297 -244.69335938 118.67089844 C-210.30336878 142.10766498 -210.30336878 142.10766498 -195.71484375 155.9375 C-193.61750423 157.90357349 -191.50324211 159.77911867 -189.3203125 161.64453125 C-184.12812535 166.16480271 -179.28864882 171.03804038 -174.43334961 175.9128418 C-172.84665054 177.50490216 -171.25467258 179.0915424 -169.66210938 180.67773438 C-164.20286134 186.1337908 -158.8685261 191.65111165 -153.90625 197.5703125 C-149.99051177 196.7616052 -148.41620346 195.37404009 -145.65625 192.4453125 C-142.79008086 189.47577332 -139.91673717 186.62938712 -136.78125 183.9453125 C-134.26391516 181.78900997 -131.89585657 179.57944187 -129.59375 177.1953125 C-125.03687315 172.57643733 -120.00156386 168.57575677 -114.90625 164.5703125 C-114.06320312 163.89871094 -113.22015625 163.22710938 -112.3515625 162.53515625 C-88.31811932 144.16308646 -59.06197442 136.39739102 -29.11181641 140.29321289 C-1.40227853 144.55975785 24.92903683 158.94025916 41.92041016 181.47729492 C58.64048573 204.4068758 65.17397698 231.04709226 61.77294922 259.22851562 C60.22451864 268.43255257 57.1528808 277.17916817 53.09375 285.5703125 C52.60261719 286.60414063 52.11148438 287.63796875 51.60546875 288.703125 C38.8817359 313.90765548 17.3200022 330.54983331 -9.03125 339.8203125 C-37.43153481 348.64941658 -68.83213136 343.04087795 -94.90625 329.5703125 C-117.82030166 317.08417972 -140.30695295 296.91946126 -153.90625 274.5703125 C-153.90625 273.9103125 -153.90625 273.2503125 -153.90625 272.5703125 C-154.56625 272.5703125 -155.22625 272.5703125 -155.90625 272.5703125 C-156.14988281 273.14265625 -156.39351562 273.715 -156.64453125 274.3046875 C-158.13142298 276.97464788 -159.88708908 278.70860257 -162.09375 280.8203125 C-165.62550211 284.20980489 -168.8534979 287.76527022 -172.05639648 291.45996094 C-185.82011586 307.16189974 -200.43703325 322.69666521 -216.90625 335.5703125 C-218.65676128 337.04887406 -220.40674768 338.52805723 -222.15625 340.0078125 C-256.97098182 368.40280654 -301.53972276 384.9490525 -346.64306641 381.35205078 C-385.79151763 377.25955239 -423.83887445 361.28751646 -449.33813477 330.43310547 C-472.99847547 300.65161915 -483.52343672 263.3327432 -479.58544922 225.48730469 C-477.99690798 213.80197218 -475.21057457 202.55417715 -470.90625 191.5703125 C-470.66567871 190.94527832 -470.42510742 190.32024414 -470.17724609 189.67626953 C-455.94003346 153.19055098 -427.61210203 122.70962125 -391.90625 106.5703125 C-372.08065435 98.06371651 -351.17391903 95.51234238 -329.80078125 94.3359375 C-328.65996094 94.26890625 -327.51914062 94.201875 -326.34375 94.1328125 C-325.39371094 94.09285156 -324.44367188 94.05289063 -323.46484375 94.01171875 C-318.96746141 93.23583447 -316.59839057 91.43422519 -313.765625 87.8984375 C-311.6510522 84.11352989 -310.3987081 80.45297339 -309.15625 76.3203125 C-302.54309603 55.60633118 -292.62909941 36.48920013 -278.90625 19.5703125 C-278.46055664 19.01778809 -278.01486328 18.46526367 -277.55566406 17.89599609 C-246.98103114 -19.73997106 -202.37172955 -43.4352702 -154.17163086 -48.484375 C-97.6518782 -53.63717296 -42.65852699 -37.85521071 0 0 Z " fill="#1D7ED6" transform="translate(726.90625,460.4296875)"/>
<path d="M0 0 C8.03240465 6.7643358 15.60421145 13.88293164 22.98779297 21.34716797 C24.73642982 23.11431022 26.49318748 24.87306928 28.2512207 26.63085938 C33.48346901 31.88013584 38.61722779 37.14943751 43.42724609 42.79394531 C45.6219896 45.31059509 48.10024214 47.49166545 50.59301758 49.70507812 C51.78051758 51.34570312 51.78051758 51.34570312 51.71801758 53.26367188 C50.49104954 55.98856338 48.8379737 57.74001586 46.78051758 59.90820312 C43.50010093 63.44255408 40.36399815 67.02447863 37.34301758 70.78320312 C33.43005007 75.61807397 29.31814071 80.22522797 25.10864258 84.80273438 C23.17357496 86.91637367 21.27843461 89.05230161 19.40551758 91.22070312 C-3.56148479 117.51470116 -29.10863335 139.07757471 -62.21948242 151.34570312 C-63.24041992 151.74402344 -64.26135742 152.14234375 -65.31323242 152.55273438 C-91.04378938 161.9896282 -121.05703664 161.42612922 -145.95385742 150.02929688 C-168.97399564 138.16125911 -186.49785595 119.26801836 -195.03198242 94.78320312 C-195.78693135 92.31176559 -196.51728743 89.83264373 -197.21948242 87.34570312 C-197.53916992 86.27449219 -197.85885742 85.20328125 -198.18823242 84.09960938 C-205.04042486 57.67425614 -198.52508404 29.80341422 -185.03198242 6.65820312 C-170.90839342 -16.44896462 -148.99569214 -32.85823392 -122.84448242 -39.96679688 C-76.91906533 -48.67678977 -34.63884589 -28.77736583 0 0 Z " fill="#FEFEFE" transform="translate(493.219482421875,639.654296875)"/>
<path d="M0 0 C13.86 0 27.72 0 42 0 C42.33 27.72 42.66 55.44 43 84 C45.97 81.36 48.94 78.72 52 76 C65.2403588 66.56851154 80.98512133 64.18601826 96.88671875 66.40234375 C113.35337093 70.16825972 127.79800507 79.93319199 136.9375 94.0625 C138.34276694 96.35103418 139.67491883 98.6624351 141 101 C141.44214844 101.76957031 141.88429688 102.53914062 142.33984375 103.33203125 C150.12234108 118.69145052 150.37711415 140.15104727 145.37890625 156.3125 C139.17030557 172.91567008 130.49768048 185.71182786 115 195 C114.03707031 195.59554687 114.03707031 195.59554687 113.0546875 196.203125 C100.89206008 203.0223387 84.82236602 203.71644206 71.25 201.4375 C60.00260627 198.25552613 51.24206331 192.11718356 43 184 C42.67 188.62 42.34 193.24 42 198 C28.14 198 14.28 198 0 198 C0 132.66 0 67.32 0 0 Z " fill="#1D7ED7" transform="translate(2687,529)"/>
<path d="M0 0 C13.86 0 27.72 0 42 0 C42 65.34 42 130.68 42 198 C28.14 198 14.28 198 0 198 C-0.33 193.38 -0.66 188.76 -1 184 C-1.86625 184.99 -2.7325 185.98 -3.625 187 C-7.09215468 190.48133527 -10.82404943 192.89944895 -15.0625 195.3125 C-15.94639404 195.81813477 -15.94639404 195.81813477 -16.84814453 196.33398438 C-30.09437687 203.6539788 -47.41122567 204.00165197 -61.88671875 200.08984375 C-77.73783671 194.54095804 -90.83123873 183.26821062 -98.390625 168.234375 C-99.74061395 165.19283363 -100.90006281 162.14051033 -102 159 C-102.39445312 157.89140625 -102.78890625 156.7828125 -103.1953125 155.640625 C-109.00685078 137.02744645 -106.98558232 118.29361624 -98.8125 100.75 C-89.89559874 83.99302665 -76.5058678 73.55313951 -58.7421875 67.19140625 C-43.34374362 62.94658807 -26.45315212 66.54381765 -12.7578125 74.046875 C-8.56732151 77.01464482 -4.83792119 80.58851449 -1 84 C-0.67 56.28 -0.34 28.56 0 0 Z " fill="#1F1F1F" transform="translate(2177,529)"/>
<path d="M0 0 C14.52 0 29.04 0 44 0 C65.45849608 50.82275387 65.45849608 50.82275387 66.64859009 53.6414032 C67.43160473 55.49590783 68.21462474 57.35041019 68.99765015 59.20491028 C70.95461446 63.8397599 72.91148239 68.47465018 74.86816406 73.10961914 C78.43981363 81.56985344 82.0121303 90.02980275 85.5879364 98.48828125 C87.57991792 103.20032634 89.57133302 107.91261066 91.5625 112.625 C91.95100128 113.54438354 92.33950256 114.46376709 92.73977661 115.41101074 C97.19515832 125.95698726 101.63686374 136.50854235 106.0546875 147.0703125 C106.46704147 148.05613312 106.87939545 149.04195374 107.304245 150.05764771 C109.27648078 154.77410891 111.24694344 159.49130275 113.21508789 164.20947266 C113.57438385 165.06975067 113.93367981 165.93002869 114.30386353 166.81637573 C114.96591858 168.40156727 115.62719041 169.98708629 116.28744507 171.57302856 C118.18325322 176.11000262 120.16752578 180.59111861 122.25367737 185.04425049 C123 187 123 187 123 190 C107.82 190 92.64 190 77 190 C70.565 173.665 70.565 173.665 64 157 C36.28 157 8.56 157 -20 157 C-22.64 163.93 -25.28 170.86 -28 178 C-29.65 181.96 -31.3 185.92 -33 190 C-48.51 190 -64.02 190 -80 190 C-70.87594458 167.18986146 -70.87594458 167.18986146 -67 158.125 C-66.04645541 155.88299091 -65.09335789 153.64079164 -64.140625 151.3984375 C-63.63466797 150.20831055 -63.12871094 149.01818359 -62.60742188 147.79199219 C-60.91101216 143.79502561 -59.2280094 139.79247347 -57.546875 135.7890625 C-48.51697145 114.28969204 -39.40429633 92.82647506 -30.24511719 71.38183594 C-25.26556506 59.71572182 -20.33172048 48.03252298 -15.465271 36.3187561 C-12.15518587 28.35571474 -8.78599446 20.42032297 -5.375 12.5 C-3.60125 8.375 -1.8275 4.25 0 0 Z " fill="#1F1F1F" transform="translate(1111,537)"/>
<path d="M0 0 C14.52 0 29.04 0 44 0 C44 24.42 44 48.84 44 74 C69.41 74 94.82 74 121 74 C121 49.58 121 25.16 121 0 C135.52 0 150.04 0 165 0 C165 62.7 165 125.4 165 190 C150.48 190 135.96 190 121 190 C121 164.92 121 139.84 121 114 C95.59 114 70.18 114 44 114 C44 139.08 44 164.16 44 190 C29.48 190 14.96 190 0 190 C0 127.3 0 64.6 0 0 Z " fill="#1F7FD7" transform="translate(2323,537)"/>
<path d="M0 0 C1.32837891 0.76183594 1.32837891 0.76183594 2.68359375 1.5390625 C16.40612992 10.05321839 26.53653366 24.22345032 31.19140625 39.60546875 C35.27700452 58.35663476 31.97749428 77.07531177 22.12792969 93.27832031 C19.25470205 97.66403489 15.75352091 101.36606029 12 105 C11.36449219 105.63292969 10.72898437 106.26585937 10.07421875 106.91796875 C-7.12378637 123.04777479 -28.50899149 125.67097492 -51.03417969 125.12304688 C-69.3598556 124.36274554 -87.05710059 114.43306401 -99.6875 101.4375 C-110.84200129 88.36394472 -116.90139293 72.04350966 -116.30859375 54.81640625 C-114.75997004 35.66443964 -107.96508214 19.47152126 -93.18359375 6.53515625 C-66.15985313 -14.63989996 -29.46851379 -17.1835546 0 0 Z " fill="#1F1F1F" transform="translate(1854,606)"/>
<path d="M0 0 C1.94921875 2.015625 1.94921875 2.015625 1.94921875 5.015625 C0.8828125 6.83398437 0.8828125 6.83398437 -0.61328125 8.859375 C-1.15960205 9.60654785 -1.70592285 10.3537207 -2.26879883 11.12353516 C-2.85685303 11.9129248 -3.44490723 12.70231445 -4.05078125 13.515625 C-4.64076904 14.31919434 -5.23075684 15.12276367 -5.83862305 15.95068359 C-7.02161154 17.56130698 -8.2073684 19.16990098 -9.39599609 20.77636719 C-11.56993396 23.71814324 -13.71711873 26.67853402 -15.86328125 29.640625 C-16.92545422 31.09919654 -17.9878018 32.5576411 -19.05078125 34.015625 C-19.99953125 33.479375 -20.94828125 32.943125 -21.92578125 32.390625 C-22.57675781 32.02453125 -23.22773437 31.6584375 -23.8984375 31.28125 C-25.32901418 30.44003976 -26.73417254 29.55397927 -28.109375 28.625 C-40.36893882 20.55111048 -52.90461937 17.47985344 -67.48828125 17.390625 C-68.56529297 17.3798291 -69.64230469 17.3690332 -70.75195312 17.35791016 C-84.18151766 17.59580294 -96.48842791 23.25167407 -106.40234375 32.28125 C-118.48696472 44.99587491 -123.47087026 61.54780838 -123.41967773 78.75463867 C-122.94662427 95.02040015 -116.7800831 109.96695497 -105.51171875 121.79296875 C-92.1539221 133.85739144 -77.44878426 136.73003339 -60.05029297 136.125 C-56.1887581 135.91377074 -52.71046425 135.23551933 -49.05078125 134.015625 C-47.80361328 133.63083984 -47.80361328 133.63083984 -46.53125 133.23828125 C-35.23832633 129.47397336 -25.10947696 123.71668673 -16.05078125 116.015625 C-11.53805491 120.14676051 -8.36417149 124.76916648 -5.05078125 129.890625 C-4.03106748 131.45125293 -3.01024759 133.01115872 -1.98828125 134.5703125 C-1.49972656 135.31635742 -1.01117187 136.06240234 -0.5078125 136.83105469 C1.57099816 139.94787737 3.74961173 142.98307856 5.94921875 146.015625 C4.3920908 150.26053433 1.22226678 152.58275991 -2.23828125 155.265625 C-2.85832031 155.74725098 -3.47835938 156.22887695 -4.1171875 156.72509766 C-26.25148088 173.45360101 -53.37841557 179.79852013 -80.79101562 176.70654297 C-107.36701046 172.87290186 -132.41333392 159.79734405 -148.80737305 138.22900391 C-165.68136147 115.2823986 -170.79773922 88.28411654 -167.74609375 60.21289062 C-163.81102644 34.57472246 -149.4688527 11.36558166 -128.61328125 -3.984375 C-90.19261002 -31.16807738 -36.44226417 -29.73605578 0 0 Z " fill="#1F1F1F" transform="translate(1639.05078125,554.984375)"/>
<path d="M0 0 C1.41732422 0.63615234 1.41732422 0.63615234 2.86328125 1.28515625 C18.90038585 9.24825522 28.7850523 22.72751157 34.81640625 39.234375 C37.58533787 49.22576462 37.18057373 62.18250651 34 72 C33.76667969 72.83273437 33.53335938 73.66546875 33.29296875 74.5234375 C28.74746117 89.01094568 18.46040814 101.29522683 5.0625 108.375 C-9.48181078 115.01960899 -24.37454425 116.33264949 -39.66796875 111.31640625 C-62.80003211 102.17747852 -80.99706706 83.33070206 -96 64 C-98.34307449 61.09512335 -100.7036871 58.20460147 -103.0625 55.3125 C-104.19959726 53.91306788 -105.33634802 52.51335411 -106.47265625 51.11328125 C-106.96000244 50.51298096 -107.44734863 49.91268066 -107.94946289 49.29418945 C-108.29614014 48.86710693 -108.64281738 48.44002441 -109 48 C-92.11020476 27.7538993 -70.78401478 6.29385809 -45 -2 C-44.00226563 -2.35449219 -43.00453125 -2.70898438 -41.9765625 -3.07421875 C-29.24346763 -6.63299929 -11.97325457 -5.54605298 0 0 Z " fill="#FEFEFE" transform="translate(708,648)"/>
<path d="M0 0 C1.72974441 0.00015918 3.45949355 0.0058569 5.18920898 0.01586914 C6.09783188 0.01728409 7.00645477 0.01869904 7.94261169 0.02015686 C10.85687494 0.02577346 13.77106254 0.03832874 16.68530273 0.05102539 C18.65600475 0.05603825 20.62670797 0.06060153 22.59741211 0.06469727 C27.43923832 0.07574828 32.28100768 0.09302401 37.12280273 0.11352539 C37.12827118 1.48296295 37.12827118 1.48296295 37.1338501 2.88006592 C37.17188761 11.52963398 37.22891755 20.178831 37.30670547 28.82813644 C37.34603249 33.27370318 37.37829278 37.71907622 37.39379883 42.16479492 C37.40906362 46.46390325 37.44368028 50.76247851 37.49111176 55.06134796 C37.50582514 56.69254138 37.51383791 58.32381094 37.51468658 59.9550705 C37.52595081 70.7606673 38.29357274 80.54913111 43.87280273 90.11352539 C50.32466108 95.84851058 56.18041576 96.77210465 64.77514648 96.49633789 C70.9173073 95.79396711 74.41205334 93.70763279 78.87280273 89.55102539 C85.86608462 80.01029546 85.72632492 68.92044134 85.73217773 57.63305664 C85.74718653 55.9672436 85.76391926 54.30144528 85.7822876 52.63566589 C85.82567094 48.28745782 85.84589517 43.93945036 85.86102295 39.59106445 C85.88416949 34.35443013 85.93656502 29.11801384 85.98396301 23.88155365 C86.05244872 15.95882121 86.08416247 8.03671241 86.12280273 0.11352539 C99.98280273 0.11352539 113.84280273 0.11352539 128.12280273 0.11352539 C128.12280273 42.35352539 128.12280273 84.59352539 128.12280273 128.11352539 C114.59280273 128.11352539 101.06280273 128.11352539 87.12280273 128.11352539 C86.79280273 122.50352539 86.46280273 116.89352539 86.12280273 111.11352539 C84.66874023 112.87696289 84.66874023 112.87696289 83.18530273 114.67602539 C74.4843376 124.56746463 63.57249081 131.35493559 50.22875977 132.23901367 C41.47193803 132.64380055 33.30966368 132.61359622 25.12280273 129.11352539 C24.43057617 128.82348633 23.73834961 128.53344727 23.02514648 128.23461914 C9.6432761 122.07225493 2.10062149 111.92824989 -2.96704102 98.25415039 C-4.78548669 91.97934214 -5.02325256 85.82407855 -5.0065918 79.34838867 C-5.00834412 78.50041214 -5.01009644 77.65243561 -5.01190186 76.77876282 C-5.01627665 73.99709991 -5.01339944 71.21550136 -5.01000977 68.43383789 C-5.01068368 66.49567655 -5.01165445 64.5575153 -5.01290894 62.61935425 C-5.01437965 58.5695515 -5.01225007 54.51977087 -5.00756836 50.4699707 C-5.00184852 45.26767802 -5.00516822 40.06543667 -5.01114082 34.86314583 C-5.01474385 30.86731576 -5.01360945 26.871498 -5.01101303 22.87566757 C-5.01034423 20.95622629 -5.01117057 19.0367839 -5.01349258 17.1173439 C-5.01601733 14.44563046 -5.01218212 11.77400199 -5.0065918 9.10229492 C-5.00861603 8.30337326 -5.01064026 7.5044516 -5.01272583 6.68132019 C-4.98724729 0.14602796 -4.98724729 0.14602796 0 0 Z " fill="#202020" transform="translate(1916.877197265625,598.886474609375)"/>
<path d="M0 0 C13.53 0 27.06 0 41 0 C41 42.24 41 84.48 41 128 C27.14 128 13.28 128 -1 128 C-1.495 120.575 -1.495 120.575 -2 113 C-3.918125 115.041875 -3.918125 115.041875 -5.875 117.125 C-17.11999905 128.33474827 -29.91050575 132.24433998 -45.47827148 132.25097656 C-51.40424217 132.16719932 -56.51535633 131.34481096 -62 129 C-62.69222656 128.70996094 -63.38445313 128.41992188 -64.09765625 128.12109375 C-76.25149849 122.52423769 -84.38009202 113.26079023 -89.2109375 100.77734375 C-89.47132813 99.86082031 -89.73171875 98.94429687 -90 98 C-90.16753784 97.42074265 -90.33507568 96.84148529 -90.50769043 96.24467468 C-92.77082926 86.97797698 -92.24918438 77.46191746 -92.1953125 67.9921875 C-92.19157679 66.05591987 -92.18873246 64.11965033 -92.18673706 62.18338013 C-92.1791445 57.1166857 -92.15953414 52.05010812 -92.1373291 46.98345947 C-92.11315456 40.88848281 -92.10406883 34.79346682 -92.09242249 28.69845581 C-92.0731068 19.46555624 -92.03475375 10.23291244 -92 1 C-78.14 1 -64.28 1 -50 1 C-49.97421875 6.28644531 -49.9484375 11.57289063 -49.921875 17.01953125 C-49.89668056 20.3874169 -49.87032779 23.75521505 -49.83984375 27.12304688 C-49.79166686 32.45760318 -49.7475632 37.79195668 -49.72900391 43.12670898 C-49.71375496 47.43229693 -49.67916551 51.73735092 -49.63169098 56.04269981 C-49.61696151 57.6775108 -49.60896388 59.31239805 -49.60811615 60.94727516 C-49.59712294 71.52665304 -48.96854294 80.85515931 -43.0625 90 C-36.83004771 96.0435901 -30.61233351 96.36155942 -22.265625 96.27734375 C-16.18483847 95.76091332 -12.6414694 93.52955103 -8.25 89.4375 C-1.30033877 79.96107804 -1.41014618 68.98592056 -1.42578125 57.7734375 C-1.41331465 56.13244144 -1.39897453 54.49145866 -1.38285828 52.85049438 C-1.34510243 48.5667641 -1.32968739 44.28326435 -1.32006836 39.99938965 C-1.30019694 33.10881424 -1.24359485 26.21841174 -1.19130516 19.328022 C-1.1759395 16.92320474 -1.16876859 14.51847466 -1.16316223 12.11361694 C-1.15615193 10.65305537 -1.14905149 9.19249422 -1.1418457 7.73193359 C-1.13836624 6.45273041 -1.13488678 5.17352722 -1.13130188 3.8555603 C-1 1 -1 1 0 0 Z " fill="#1E7FD7" transform="translate(2612,599)"/>
<path d="M0 0 C14.19 0 28.38 0 43 0 C43 65.34 43 130.68 43 198 C28.81 198 14.62 198 0 198 C0 132.66 0 67.32 0 0 Z " fill="#1E1E1E" transform="translate(1669,529)"/>
<path d="M0 0 C14.19 0 28.38 0 43 0 C43 65.34 43 130.68 43 198 C28.81 198 14.62 198 0 198 C0 132.66 0 67.32 0 0 Z " fill="#1E1E1E" transform="translate(1331,529)"/>
<path d="M0 0 C14.19 0 28.38 0 43 0 C43 65.34 43 130.68 43 198 C28.81 198 14.62 198 0 198 C0 132.66 0 67.32 0 0 Z " fill="#1E1E1E" transform="translate(1253,529)"/>
<path d="M0 0 C6.63655336 5.07840605 10.8651412 12.78366926 13.046875 20.75 C14.20259667 33.41791025 12.15068206 43.81998289 4.046875 53.75 C-1.29708408 59.49538324 -7.42480665 62.67598886 -15.3203125 63.21875 C-16.82256297 63.25297433 -18.32553992 63.26287838 -19.828125 63.25 C-20.61751465 63.24355469 -21.4069043 63.23710938 -22.22021484 63.23046875 C-31.1347526 62.95171752 -36.82451059 59.95453012 -43.328125 53.9375 C-50.88806135 45.8441004 -53.52003353 36.34904081 -53.32421875 25.41796875 C-52.31712933 15.46368487 -47.42751493 7.27674406 -39.953125 0.75 C-27.82768609 -7.5662961 -12.45762066 -7.97287722 0 0 Z " fill="#FDFDFE" transform="translate(2779.953125,634.25)"/>
<path d="M0 0 C8.43899396 5.18416383 14.45610474 11.72105671 17.23828125 21.375 C18.81609008 32.07140669 18.23935265 43.11460544 12.23828125 52.375 C7.48765101 58.45801202 1.96648261 63.79823945 -5.76171875 65.375 C-14.78899432 66.37029878 -24.71440608 66.99048167 -32.6875 62.05078125 C-40.39830037 55.82115157 -45.8247395 48.19949836 -47.76171875 38.375 C-48.95999157 26.52843921 -47.53636206 18.27937396 -40.76171875 8.375 C-38.34632217 5.51466195 -35.90487873 3.39729727 -32.76171875 1.375 C-31.79878906 0.73111328 -31.79878906 0.73111328 -30.81640625 0.07421875 C-22.04036776 -4.78096604 -8.8978483 -4.30685767 0 0 Z " fill="#FDFDFD" transform="translate(2160.76171875,631.625)"/>
<path d="M0 0 C7.74824336 6.65628702 12.17747107 13.98685863 13.37109375 24.1640625 C13.78559446 34.68986849 11.59706013 43.46978571 4.625 51.5 C-1.91292161 58.17702633 -8.05203087 62.13843932 -17.70947266 62.4309082 C-25.61605393 62.45644992 -31.30730636 61.61166414 -38 57 C-39.5778125 55.948125 -39.5778125 55.948125 -41.1875 54.875 C-46.69243095 49.95201889 -51.50675153 42.47199647 -52.17700195 35.03637695 C-52.71471602 17.06473024 -52.71471602 17.06473024 -48 10 C-47.57589844 9.30777344 -47.15179687 8.61554687 -46.71484375 7.90234375 C-42.42626423 1.51128514 -36.82290104 -2.35090543 -29.8125 -5.375 C-18.56766924 -7.21841488 -9.49730891 -6.73005907 0 0 Z " fill="#FDFDFD" transform="translate(1832,635)"/>
<path d="M0 0 C2.48347756 2.21645051 3.6736789 4.15060467 4.8659668 7.24584961 C5.20029221 8.10202377 5.53461761 8.95819794 5.8790741 9.84031677 C6.23222183 10.76828568 6.58536957 11.69625458 6.94921875 12.65234375 C7.32552933 13.6216835 7.7018399 14.59102325 8.08955383 15.58973694 C9.2963531 18.70282381 10.49223354 21.81996922 11.6875 24.9375 C12.86288214 27.98204772 14.04051271 31.02571791 15.21853638 34.06924438 C15.99610558 36.07982517 16.77205115 38.09103464 17.5463562 40.10287476 C19.44874888 45.03762854 21.37698976 49.95920078 23.36572266 54.85986328 C23.73905228 55.78078262 24.1123819 56.70170197 24.49702454 57.65052795 C25.20310634 59.38538188 25.91364191 61.118432 26.62931824 62.84934998 C26.94218277 63.61779739 27.2550473 64.38624481 27.57739258 65.17797852 C27.85327713 65.84700699 28.12916168 66.51603546 28.41340637 67.20533752 C29 69 29 69 29 72 C10.19 72 -8.62 72 -28 72 C-18.95431034 47.8781609 -9.62285001 23.89516614 0 0 Z " fill="#FAFAFA" transform="translate(1132,587)"/>
</svg>